<?xml version="1.0" encoding="UTF-8" standalone="no"?>
<!-- Created with Inkscape (http://www.inkscape.org/) -->

<svg
   width="25.873798mm"
   height="40.716972mm"
   viewBox="0 0 25.873798 40.716972"
   version="1.1"
   id="svg1"
   xml:space="preserve"
   xmlns="http://www.w3.org/2000/svg"
   xmlns:svg="http://www.w3.org/2000/svg"><defs
     id="defs1" /><g
     id="layer1"
     transform="translate(54.775567,-35.177226)"><path
       id="path39"
       style="fill:#ffbf00"
       d="m -44.663702,35.177722 c -0.822662,-0.002 -1.679507,0.0021 -2.528528,0.01137 -3.396089,0.03724 -6.667978,0.16144 -7.134965,0.343131 -0.62121,0.241697 -0.583786,0.727611 0.103353,1.338937 0.311592,0.277216 0.83963,0.567238 1.074869,1.07952 0,0 0.494411,1.085626 0.496611,1.473812 0.03026,5.300151 -0.03307,16.07499 -0.03307,16.07499 v 3.41891 c -0.297149,4.54068 0.155451,10.82896 -0.463021,13.60796 l -0.04082,0.09043 c -0.277203,0.61058 -0.750965,1.26422 -1.052649,1.45262 -0.668043,0.4172 -0.722841,1.26018 -0.08527,1.30948 0.254659,0.0197 2.368025,0.12455 4.696354,0.23307 2.328329,0.10853 5.689578,0.31431 7.508586,0.27801 0,0 3.026146,-0.0443 4.091223,-0.32969 1.565069,-0.41936 4.067968,-1.85208 4.067968,-1.85208 2.534024,-1.96068 3.513487,-3.0867 4.598686,-7.32979 1.520224,-5.94401 -0.767856,-10.85192 -5.959326,-12.78216 l -1.567863,-0.58292 0.643372,-0.17208 c 1.940492,-0.51897 3.906213,-2.26529 4.899959,-4.35322 0,0 0.446872,-0.68541 0.629936,-1.322917 0.183062,-0.637503 0.291154,-1.690677 0.288354,-2.498039 -0.0028,-0.80736 -0.08396,-1.651386 -0.283187,-2.31252 -0.199228,-0.661134 -0.810803,-1.621606 -0.810803,-1.621606 -1.43704,-2.875771 -4.137873,-4.736805 -7.788155,-5.365564 -0.722801,-0.124502 -2.883625,-0.183655 -5.351611,-0.189653 z m -2.453597,2.264978 3.108854,0.120923 c 5.532097,0.215969 7.480418,1.948232 7.690486,6.836792 0.158658,3.692136 -0.700514,5.721626 -2.879927,6.804236 -1.262565,0.62719 -4.091861,0.91472 -6.662643,0.67748 l -1.25677,-0.11576 v -7.161834 z m 0,16.939531 3.770312,0.10129 c 0,0 2.933359,-0.10387 3.770313,0.10129 0.836952,0.20516 1.25677,0.61339 1.25677,0.61339 2.648138,1.29195 3.775965,3.8407 3.762045,8.50336 0,0 0.0094,2.01708 -0.117306,2.77399 -0.126678,0.75691 -0.589628,1.72858 -0.589628,1.72858 -0.738493,2.16547 -1.729385,3.52067 -3.478857,4.4111 0,0 -0.498371,0.36851 -1.043864,0.58601 0.03385,-0.01656 0.06814,-0.0322 0.101802,-0.04909 0.06616,-0.0327 0.129074,-0.0714 0.191203,-0.11111 0.02289,-0.0153 0.04529,-0.03102 0.0677,-0.04702 5.3e-4,-5.3e-4 2e-5,-0.001 -5.17e-4,-0.001 v -5.1e-4 c -0.02241,0.0159 -0.0448,0.03172 -0.0677,0.04702 -0.0621,0.0397 -0.125073,0.07841 -0.191202,0.11111 -0.04268,0.0214 -0.08618,0.04118 -0.129192,0.06201 -0.0966,0.03746 -0.193781,0.07166 -0.290421,0.09612 -0.653222,0.16534 -2.513542,0.06253 -2.513542,0.06253 -1.382444,0.0346 -2.960026,0.0089 -3.505729,-0.05685 l -0.413411,-0.05012 c -0.0472,-0.0181 -0.09515,-0.03424 -0.141077,-0.05633 -0.05475,-0.0296 -0.111012,-0.058 -0.162781,-0.0925 -0.04776,-0.024 -0.07625,-0.07771 -0.120406,-0.10646 0.0016,0.01 0.0011,0.0035 -0.01447,-0.01343 -0.01246,-0.0139 -0.02458,-0.02789 -0.03566,-0.04289 -0.0041,-0.006 -0.0079,-0.01177 -0.01189,-0.01757 -0.03089,-0.0485 -0.05992,-0.0986 -0.08165,-0.15193 -0.0038,-0.0092 -0.0071,-0.01868 -0.01085,-0.02791 v -8.96689 z" /></g></svg>
